<svg xmlns="http://www.w3.org/2000/svg" height="24" width="24" viewBox="0 0 24 24"><title>24 grid 4</title><g stroke-linecap="round" transform="translate(0.5 0.5)" fill="#212121" stroke-linejoin="round" class="nc-icon-wrapper"><rect x="3" y="3" width="1.5" height="1.5" stroke="#212121" stroke-width="1" fill="#212121"></rect><rect x="19.5" y="3" width="1.5" height="1.5" fill="#212121" stroke="#212121" stroke-width="1" data-color="color-2"></rect><rect x="8.5" y="3" width="1.5" height="1.5" stroke="#212121" stroke-width="1" fill="#212121"></rect><rect x="14" y="3" width="1.5" height="1.5" stroke="#212121" stroke-width="1" fill="#212121"></rect><rect x="3" y="8.5" width="1.5" height="1.5" stroke="#212121" stroke-width="1" fill="#212121"></rect><rect x="19.5" y="8.5" width="1.5" height="1.5" stroke="#212121" stroke-width="1" fill="#212121"></rect><rect x="8.5" y="8.5" width="1.5" height="1.5" stroke="#212121" stroke-width="1" fill="#212121"></rect><rect x="14" y="8.5" width="1.5" height="1.5" fill="#212121" stroke="#212121" stroke-width="1" data-color="color-2"></rect><rect x="3" y="14" width="1.5" height="1.5" stroke="#212121" stroke-width="1" fill="#212121"></rect><rect x="19.5" y="14" width="1.5" height="1.5" stroke="#212121" stroke-width="1" fill="#212121"></rect><rect x="8.5" y="14" width="1.5" height="1.5" fill="#212121" stroke="#212121" stroke-width="1" data-color="color-2"></rect><rect x="14" y="14" width="1.5" height="1.5" stroke="#212121" stroke-width="1" fill="#212121"></rect><rect x="3" y="19.5" width="1.5" height="1.5" fill="#212121" stroke="#212121" stroke-width="1" data-color="color-2"></rect><rect x="19.5" y="19.5" width="1.5" height="1.5" stroke="#212121" stroke-width="1" fill="#212121"></rect><rect x="8.5" y="19.5" width="1.5" height="1.5" stroke="#212121" stroke-width="1" fill="#212121"></rect><rect x="14" y="19.5" width="1.5" height="1.5" stroke="#212121" stroke-width="1" fill="#212121"></rect></g></svg>