<svg xmlns="http://www.w3.org/2000/svg" height="24" width="24" viewBox="0 0 24 24"><title>24 wardrobe 4</title><g stroke-linecap="round" transform="translate(0.5 0.5)" fill="#212121" stroke-linejoin="round" class="nc-icon-wrapper"> <path d="M12 11L13.01 11L13.01 14L12 14" stroke="#212121" stroke-width="1" data-color="color-2" fill="none"></path> <path d="M4 14H12" stroke="#212121" stroke-width="1" fill="none"></path> <path d="M4 6H12" stroke="#212121" stroke-width="1" fill="none"></path> <path d="M12 2V22" stroke="#212121" stroke-width="1" fill="none"></path> <path d="M8.01001 18L8.00001 18" stroke="#212121" stroke-width="1" data-color="color-2" fill="none"></path> <path d="M8.01001 10L8.00001 10" stroke="#212121" stroke-width="1" data-color="color-2" fill="none"></path> <path d="M18 2L6.00001 2C4.89544 2 4.00001 2.89543 4.00001 4L4.00001 20C4.00001 21.1046 4.89544 22 6.00001 22L18 22C19.1046 22 20 21.1046 20 20L20 4C20 2.89543 19.1046 2 18 2Z" stroke="#212121" stroke-width="1" fill="none"></path> </g></svg>