<svg width="16" height="16" viewBox="0 0 16 16" fill="none" xmlns="http://www.w3.org/2000/svg">
<path d="M1.33301 5.58498C1.33301 5.35143 1.33301 5.23466 1.34275 5.1363C1.43674 4.18768 2.18719 3.43723 3.13582 3.34324C3.23417 3.3335 3.35725 3.3335 3.6034 3.3335C3.69824 3.3335 3.74567 3.3335 3.78593 3.33106C4.30008 3.29992 4.75031 2.97541 4.94244 2.4975C4.95748 2.46007 4.97155 2.41788 4.99967 2.3335C5.0278 2.24911 5.04187 2.20692 5.05691 2.1695C5.24904 1.69158 5.69927 1.36707 6.21342 1.33593C6.25368 1.3335 6.29815 1.3335 6.3871 1.3335H9.61225C9.70119 1.3335 9.74567 1.3335 9.78593 1.33593C10.3001 1.36707 10.7503 1.69158 10.9424 2.1695C10.9575 2.20692 10.9715 2.24911 10.9997 2.3335C11.0278 2.41788 11.0419 2.46007 11.0569 2.4975C11.249 2.97541 11.6993 3.29992 12.2134 3.33106C12.2537 3.3335 12.3011 3.3335 12.396 3.3335C12.6421 3.3335 12.7652 3.3335 12.8635 3.34324C13.8122 3.43723 14.5626 4.18768 14.6566 5.1363C14.6663 5.23466 14.6663 5.35143 14.6663 5.58498V10.8002C14.6663 11.9203 14.6663 12.4803 14.4484 12.9081C14.2566 13.2845 13.9506 13.5904 13.5743 13.7822C13.1465 14.0002 12.5864 14.0002 11.4663 14.0002H4.53301C3.4129 14.0002 2.85285 14.0002 2.42503 13.7822C2.0487 13.5904 1.74274 13.2845 1.55099 12.9081C1.33301 12.4803 1.33301 11.9203 1.33301 10.8002V5.58498Z" stroke="#202E35" stroke-width="1.33333" stroke-linecap="round" stroke-linejoin="round"/>
<path d="M7.99967 11.0002C9.47243 11.0002 10.6663 9.80626 10.6663 8.3335C10.6663 6.86074 9.47243 5.66683 7.99967 5.66683C6.52692 5.66683 5.33301 6.86074 5.33301 8.3335C5.33301 9.80626 6.52692 11.0002 7.99967 11.0002Z" stroke="#202E35" stroke-width="1.33333" stroke-linecap="round" stroke-linejoin="round"/>
</svg>
