<svg width="24" height="24" viewBox="0 0 24 24" fill="none" xmlns="http://www.w3.org/2000/svg">
<path d="M18.5 3.90693C15.931 3.31544 13.3791 4.0571 12.7468 6.66087L12.543 7.49998H12.4588L12.2544 6.65904C11.6213 4.05533 9.06869 3.31469 6.49951 3.90693" stroke="#212121" stroke-linecap="round" stroke-linejoin="round"/>
<path d="M8.20227 11.5H16.7064" stroke="#212121" stroke-linecap="round" stroke-linejoin="round"/>
<path d="M6.5 2.5V6.1418C6.5 7.63506 7.16742 9.05016 8.31966 9.99997L9.05558 10.6066L7.71694 12.0445C5.64946 14.2653 4.50002 17.1869 4.50001 20.2211L4.5 20.7546C4.5 21.3872 5.09451 21.8514 5.70823 21.6979L6.65506 21.4612C7.8456 21.1636 9.10333 21.3017 10.2009 21.8505C11.6482 22.5741 13.3518 22.5741 14.7991 21.8505C15.8967 21.3017 17.1544 21.1636 18.3449 21.4612L19.2918 21.6979C19.9055 21.8514 20.5 21.3872 20.5 20.7546V20.2212C20.5 17.1869 19.3506 14.2653 17.2831 12.0445L15.9445 10.6066L16.6804 9.99997C17.8326 9.05016 18.5 7.63507 18.5 6.14183V2.5" stroke="#212121" stroke-linecap="round" stroke-linejoin="round"/>
</svg>
