<svg width="20" height="20" viewBox="0 0 20 20" fill="none" xmlns="http://www.w3.org/2000/svg">
<path d="M13.1137 5.62064C13.1135 5.10516 12.9643 4.60027 12.6833 4.16464C12.4023 3.72902 12.0012 3.3805 11.5262 3.15959C11.0514 2.93868 10.5224 2.85443 10.0007 2.91664C9.4789 2.97885 8.9859 3.18495 8.57881 3.51101C8.17174 3.83707 7.86733 4.26972 7.70095 4.75868C7.53456 5.24766 7.51303 5.77289 7.63884 6.27339C7.76465 6.77389 8.03265 7.22911 8.41172 7.58618C8.41755 7.59167 8.42337 7.59715 8.42915 7.60259C9.00782 8.14674 9.58398 8.86237 9.58398 9.6567V9.97978L2.08398 14.5833V15.4166C2.08398 16.3371 2.83018 17.0833 3.75065 17.0833H17.084C18.0045 17.0833 18.7507 16.3371 18.7507 15.4166V14.5833L12.7012 11.0894" stroke="#212121" stroke-width="0.833333" stroke-linecap="round" stroke-linejoin="round"/>
</svg>
