<svg width="16" height="16" viewBox="0 0 16 16" fill="none" xmlns="http://www.w3.org/2000/svg">
<path d="M2.84774 13.8186L7.24543 9.42091C7.50944 9.1569 7.64144 9.0249 7.79366 8.97544C7.92756 8.93193 8.07179 8.93193 8.20569 8.97544C8.3579 9.0249 8.48991 9.15691 8.75392 9.42091L13.1223 13.7893M9.33301 10L11.2454 8.08758C11.5094 7.82357 11.6414 7.69156 11.7937 7.6421C11.9276 7.5986 12.0718 7.5986 12.2057 7.6421C12.3579 7.69156 12.4899 7.82357 12.7539 8.08758L14.6663 10M6.66634 6C6.66634 6.73638 6.06939 7.33333 5.33301 7.33333C4.59663 7.33333 3.99967 6.73638 3.99967 6C3.99967 5.26362 4.59663 4.66667 5.33301 4.66667C6.06939 4.66667 6.66634 5.26362 6.66634 6ZM4.53301 14H11.4663C12.5864 14 13.1465 14 13.5743 13.782C13.9506 13.5903 14.2566 13.2843 14.4484 12.908C14.6663 12.4802 14.6663 11.9201 14.6663 10.8V5.2C14.6663 4.0799 14.6663 3.51984 14.4484 3.09202C14.2566 2.71569 13.9506 2.40973 13.5743 2.21799C13.1465 2 12.5864 2 11.4663 2H4.53301C3.4129 2 2.85285 2 2.42503 2.21799C2.0487 2.40973 1.74274 2.71569 1.55099 3.09202C1.33301 3.51984 1.33301 4.0799 1.33301 5.2V10.8C1.33301 11.9201 1.33301 12.4802 1.55099 12.908C1.74274 13.2843 2.0487 13.5903 2.42503 13.782C2.85285 14 3.4129 14 4.53301 14Z" stroke="#202E35" stroke-width="1.33333" stroke-linecap="round" stroke-linejoin="round"/>
</svg>
