<svg width="36" height="36" viewBox="0 0 36 36" fill="none" xmlns="http://www.w3.org/2000/svg">
<g clip-path="url(#clip0_1_828)">
<path d="M18 0C8.05781 0 0 8.05781 0 18C0 25.6289 4.74609 32.1398 11.4398 34.7625C11.2852 33.3352 11.1375 31.1555 11.5031 29.6016C11.8336 28.1953 13.6125 20.6578 13.6125 20.6578C13.6125 20.6578 13.0711 19.582 13.0711 17.9859C13.0711 15.4828 14.5195 13.6125 16.3266 13.6125C17.8594 13.6125 18.6047 14.7656 18.6047 16.1508C18.6047 17.6977 17.6203 20.0039 17.1141 22.1414C16.6922 23.9344 18.0141 25.3969 19.7789 25.3969C22.9781 25.3969 25.4391 22.0219 25.4391 17.1562C25.4391 12.8461 22.3453 9.82969 17.9227 9.82969C12.8039 9.82969 9.79453 13.6687 9.79453 17.6414C9.79453 19.1883 10.3922 20.8477 11.1375 21.7477C11.2852 21.9234 11.3062 22.0852 11.2641 22.2609C11.1305 22.8305 10.8211 24.0539 10.7648 24.3C10.6875 24.6305 10.5047 24.7008 10.1602 24.5391C7.91016 23.4914 6.50391 20.2078 6.50391 17.5641C6.50391 11.8828 10.6313 6.67266 18.3938 6.67266C24.6375 6.67266 29.4891 11.1234 29.4891 17.0719C29.4891 23.2734 25.5797 28.2656 20.1516 28.2656C18.3305 28.2656 16.6148 27.3164 16.0242 26.1984C16.0242 26.1984 15.1242 29.6367 14.9062 30.4805C14.4984 32.0414 13.4016 34.0031 12.6703 35.1984C14.3578 35.7188 16.1438 36 18 36C27.9422 36 36 27.9422 36 18C36 8.05781 27.9422 0 18 0Z" fill="#232323"/>
</g>
<defs>
<clipPath id="clip0_1_828">
<rect width="36" height="36" fill="white"/>
</clipPath>
</defs>
</svg>
